<svg id="logo_minimal-negative" data-name="logo minimal-negative" xmlns="http://www.w3.org/2000/svg" viewBox="0 0 470.95 470.95"><defs><style>.cls-1{fill:#fff;}</style></defs><title>vak-minimal-logo-2017</title><g id="logo"><path class="cls-1" d="M441.51,157.1C316.7,121.41,186.13,193.91,150.44,318.71A235.41,235.41,0,0,0,312,609.77a234,234,0,0,0,179-20.52A233.87,233.87,0,0,0,603.11,448.17C638.8,323.36,566.31,192.79,441.51,157.1ZM595.61,446A227.6,227.6,0,0,1,314.19,602.27C193.53,567.76,123.44,441.52,157.95,320.85c28.55-99.84,119.89-165,218.92-165a227.08,227.08,0,0,1,62.5,8.8C560,199.12,630.12,325.36,595.61,446Z" transform="translate(-141.26 -148)"/><path class="cls-1" d="M431.27,272.82l-0.63,59.93a5.86,5.86,0,0,1-5.86,5.79H404a5.86,5.86,0,0,1-5.86-5.89l0.21-47.37a5.86,5.86,0,0,0-5.86-5.89H371.19l-0.12.31-8,20.06-28.89,72.14L307.67,438l-3.52,8.77a5.86,5.86,0,0,1-5.44,3.68h-37a5.86,5.86,0,0,1-5.38-3.53l-54.56-125.8a5.86,5.86,0,0,1,5.38-8.2h19.51a5.86,5.86,0,0,1,5.35,3.47l52.76,118.13a5.86,5.86,0,0,0,5.35,3.47h0a5.86,5.86,0,0,0,5.44-3.68L304,413.15l21-52.62,18.31-45.67,19.21-48,0.23,0.08v-0.08H425.4A5.86,5.86,0,0,1,431.27,272.82Z" transform="translate(-141.26 -148)"/><path class="cls-1" d="M520.11,503.08l-54-96.23a5.86,5.86,0,0,1,1.57-7.54l39.92-30.24a5.86,5.86,0,0,0,1.13-8.21l-0.37-.49a5.86,5.86,0,0,0-8.33-1l-61.54,49a5.86,5.86,0,0,1-9.52-4.59V363.39a5.86,5.86,0,0,0-5.86-5.86H398.08v0.12H368.64a5.86,5.86,0,0,0-5.86,5.86v4.66a5.86,5.86,0,0,0,5.86,5.86h23.58a5.86,5.86,0,0,1,5.86,5.86V499a5.86,5.86,0,0,0,5.86,5.86h19.23A5.86,5.86,0,0,0,429,499v-67.5l0,0,11.86-10.43a5.86,5.86,0,0,1,9,1.53l48.23,86a5.86,5.86,0,0,0,8,2.25l2.51-1.41h0l11.23-5.44-0.36-.65Z" transform="translate(-141.26 -148)"/></g></svg>